<?xml version="1.0" encoding="UTF-8" standalone="no"?>
<!-- Created with Inkscape (http://www.inkscape.org/) -->

<svg
   xmlns:dc="http://purl.org/dc/elements/1.1/"
   xmlns:cc="http://creativecommons.org/ns#"
   xmlns:rdf="http://www.w3.org/1999/02/22-rdf-syntax-ns#"
   xmlns:svg="http://www.w3.org/2000/svg"
   xmlns="http://www.w3.org/2000/svg"
   xmlns:sodipodi="http://sodipodi.sourceforge.net/DTD/sodipodi-0.dtd"
   xmlns:inkscape="http://www.inkscape.org/namespaces/inkscape"
   width="210mm"
   height="297mm"
   id="svg2"
   version="1.1"
   inkscape:version="0.48.2 r9819"
   sodipodi:docname="herault(2).svg">
  <defs
     id="defs4">
    <filter
       inkscape:collect="always"
       id="filter3770">
      <feGaussianBlur
         inkscape:collect="always"
         stdDeviation="2.1882886"
         id="feGaussianBlur3772" />
    </filter>
  </defs>
  <sodipodi:namedview
     id="base"
     pagecolor="#ffffff"
     bordercolor="#666666"
     borderopacity="1.0"
     inkscape:pageopacity="0.0"
     inkscape:pageshadow="2"
     inkscape:zoom="3.959798"
     inkscape:cx="188.35646"
     inkscape:cy="670.84508"
     inkscape:document-units="px"
     inkscape:current-layer="layer1"
     showgrid="false"
     inkscape:window-width="1920"
     inkscape:window-height="986"
     inkscape:window-x="0"
     inkscape:window-y="31"
     inkscape:window-maximized="1"
     showguides="true"
     inkscape:guide-bbox="true" />
  <metadata
     id="metadata7">
    <rdf:RDF>
      <cc:Work
         rdf:about="">
        <dc:format>image/svg+xml</dc:format>
        <dc:type
           rdf:resource="http://purl.org/dc/dcmitype/StillImage" />
        <dc:title></dc:title>
      </cc:Work>
    </rdf:RDF>
  </metadata>
  <g
     inkscape:label="Calque 1"
     inkscape:groupmode="layer"
     id="layer1">
    <rect
       style="fill:#004a9c;fill-opacity:1;stroke:none"
       id="rect3826"
       width="81.785713"
       height="70.829628"
       x="239.79701"
       y="457.93442"
       ry="0"
       transform="matrix(1,0,-0.37312874,0.92777958,0,0)" />
    <path
       sodipodi:type="arc"
       style="fill:#e75012;fill-opacity:1;stroke:none"
       id="path3050"
       sodipodi:cx="165.89285"
       sodipodi:cy="361.11218"
       sodipodi:rx="36.25"
       sodipodi:ry="36.25"
       d="m 202.14285,361.11218 a 36.25,36.25 0 1 1 -72.5,0 36.25,36.25 0 1 1 72.5,0 z"
       transform="matrix(1,0,0,0.97536946,-98.214288,91.930103)" />
    <path
       style="fill:#01a5d6;fill-opacity:1;stroke:#ffffff;stroke-width:1px;stroke-linecap:butt;stroke-linejoin:miter;stroke-opacity:1"
       d="m 41.571444,491.50505 7.71428,-17 c 11.19202,-2.25107 19.09607,-3.63086 35,3.21429 15.903926,6.84515 34.033006,6.75284 46.071426,-1.07143 l -6.07143,14.28571 z"
       id="path3052"
       inkscape:connector-curvature="0"
       sodipodi:nodetypes="cczccc" />
    <g
       id="g3763"
       transform="translate(-0.167135,0.52843515)" />
    <rect
       inkscape:export-ydpi="74.540703"
       inkscape:export-xdpi="74.540703"
       inkscape:export-filename="/tmp/icon-hdpi.png"
       style="fill:#1a1a1a;fill-opacity:1;stroke:none;filter:url(#filter3770)"
       id="rect3768"
       width="72.85714"
       height="72.85714"
       x="58.57143"
       y="338.79074"
       transform="matrix(1.0428429,0,0,1.0428429,137.21564,-22.789782)"
       ry="12.857142" />
    <path
       inkscape:export-ydpi="74.540703"
       inkscape:export-xdpi="74.540703"
       inkscape:export-filename="/tmp/icon-hdpi.png"
       id="rect3828"
       d="m 208.0893,330.59876 c -5.34014,0 -9.625,4.34736 -9.625,9.6875 l 0,56.5 c 0,5.34014 4.28486,9.625 9.625,9.625 l 56.53125,0 c 5.34013,0 9.625,-4.28486 9.625,-9.625 l 0,-56.5 c 0,-5.34014 -4.28487,-9.6875 -9.625,-9.6875 l -56.53125,0 z"
       style="fill:#004a9c;fill-opacity:1;stroke:none"
       inkscape:connector-curvature="0" />
    <path
       inkscape:export-ydpi="74.540703"
       inkscape:export-xdpi="74.540703"
       inkscape:export-filename="/tmp/icon-hdpi.png"
       sodipodi:type="arc"
       style="fill:#e75012;fill-opacity:1;stroke:none"
       id="path3830"
       sodipodi:cx="165.89285"
       sodipodi:cy="361.11218"
       sodipodi:rx="36.25"
       sodipodi:ry="36.25"
       d="m 202.14285,361.11218 a 36.25,36.25 0 1 1 -72.5,0 36.25,36.25 0 1 1 72.5,0 z"
       transform="matrix(1,0,0,0.97536946,70.649837,15.789442)" />
    <path
       inkscape:export-ydpi="74.540703"
       inkscape:export-xdpi="74.540703"
       inkscape:export-filename="/tmp/icon-hdpi.png"
       sodipodi:nodetypes="scssscss"
       inkscape:connector-curvature="0"
       id="path3832"
       d="m 208.31698,390.59876 c -3.55127,0.0267 -6.57224,0.50644 -9.85268,1.15625 l 0,5.03125 c 0,5.34014 4.10629,9.625 9.44643,9.625 l 56.70982,0 c 5.24598,0 9.44638,-4.13538 9.59375,-9.34375 -9.70373,5.26042 -25.66669,4.61677 -42.03125,-1.40625 -10.46154,-3.8504 -17.79376,-5.10815 -23.86607,-5.0625 z"
       style="fill:#01a5d6;fill-opacity:1;stroke:none" />
    <path
       inkscape:export-ydpi="74.540703"
       inkscape:export-xdpi="74.540703"
       inkscape:export-filename="/tmp/icon-hdpi.png"
       style="fill:none;stroke:#ffffff;stroke-width:2.79999995;stroke-linecap:butt;stroke-linejoin:miter;stroke-miterlimit:4;stroke-opacity:1;stroke-dasharray:none"
       d="m 274.25,397.5318 c -9.70373,5.26042 -25.48811,4.4382 -41.85267,-1.58482 -10.46154,-3.8504 -18.32947,-5.10815 -24.40178,-5.0625 -3.55127,0.0267 -6.39367,0.32787 -9.67411,0.97768"
       id="path3008"
       inkscape:connector-curvature="0"
       sodipodi:nodetypes="cssc" />
    <text
       inkscape:export-ydpi="74.540703"
       inkscape:export-xdpi="74.540703"
       inkscape:export-filename="/tmp/icon-hdpi.png"
       transform="scale(0.97473069,1.0259244)"
       sodipodi:linespacing="125%"
       id="text3059"
       y="372.4292"
       x="241.85789"
       style="font-size:47.10716248px;font-style:normal;font-weight:normal;line-height:125%;letter-spacing:0px;word-spacing:0px;fill:#000000;fill-opacity:1;stroke:none;font-family:Sans"
       xml:space="preserve"><tspan
         style="font-size:40px;font-style:normal;font-variant:normal;font-weight:bold;font-stretch:normal;text-align:center;text-anchor:middle;fill:#ffffff;font-family:Vemana2000;-inkscape-font-specification:Vemana2000 Bold"
         y="372.4292"
         x="241.85789"
         id="tspan3061"
         sodipodi:role="line">HT</tspan></text>
    <text
       xml:space="preserve"
       style="font-size:40px;font-style:normal;font-weight:normal;line-height:125%;letter-spacing:0px;word-spacing:0px;fill:#000000;fill-opacity:1;stroke:none;font-family:Sans"
       x="121.42857"
       y="345.57648"
       id="text3842"
       sodipodi:linespacing="125%"><tspan
         sodipodi:role="line"
         id="tspan3844"></tspan></text>
  </g>
</svg>
